<?xml version="1.0" encoding="UTF-8" standalone="no"?>
<!DOCTYPE svg PUBLIC "-//W3C//DTD SVG 1.1//EN" "http://www.w3.org/Graphics/SVG/1.1/DTD/svg11.dtd">
<svg version="1.1" xmlns="http://www.w3.org/2000/svg" xmlns:xlink="http://www.w3.org/1999/xlink" preserveAspectRatio="xMidYMid meet" viewBox="0 0 640 640" width="640" height="640"><defs><path d="M591.03 26.84L593.18 27.06L595.31 27.37L597.4 27.75L599.47 28.22L601.51 28.77L603.51 29.39L605.48 30.09L607.41 30.86L609.3 31.71L611.16 32.63L612.97 33.61L614.74 34.67L616.47 35.79L618.15 36.97L619.78 38.21L621.36 39.52L622.89 40.88L624.36 42.3L625.78 43.78L627.15 45.31L628.45 46.89L629.7 48.52L630.88 50.2L632 51.92L633.05 53.69L634.04 55.51L634.96 57.36L635.8 59.26L636.58 61.19L637.28 63.16L637.9 65.16L638.45 67.2L638.92 69.26L639.3 71.36L639.61 73.48L639.83 75.63L639.96 77.8L640 80L640 453.33L639.96 455.53L639.83 457.7L639.61 459.85L639.3 461.97L638.92 464.07L638.45 466.14L637.9 468.17L637.28 470.18L636.58 472.14L635.81 474.08L634.96 475.97L634.04 477.83L633.06 479.64L632 481.41L630.88 483.14L629.7 484.81L628.46 486.45L627.15 488.03L625.79 489.56L624.37 491.03L622.89 492.45L621.36 493.82L619.78 495.12L618.15 496.37L616.47 497.55L614.74 498.67L612.97 499.72L611.16 500.71L609.31 501.62L607.41 502.47L605.48 503.24L603.51 503.94L601.51 504.57L599.47 505.12L597.41 505.58L595.31 505.97L593.19 506.27L591.04 506.49L588.86 506.62L586.67 506.67L399.97 506.67L400.02 508.29L400.08 509.96L400.16 511.67L400.25 513.41L400.36 515.2L400.49 517.02L400.63 518.86L400.79 520.74L400.97 522.64L401.17 524.56L401.39 526.5L401.64 528.46L401.9 530.43L402.19 532.41L402.49 534.4L402.83 536.39L403.19 538.39L403.57 540.38L403.98 542.37L404.41 544.35L404.88 546.32L405.37 548.28L405.89 550.23L406.44 552.15L407.02 554.05L407.63 555.93L408.27 557.78L408.94 559.6L409.65 561.39L410.39 563.14L411.17 564.86L411.98 566.53L412.83 568.15L413.71 569.73L414.64 571.26L415.6 572.74L416.6 574.16L417.63 575.52L418.71 576.81L419.83 578.05L420.25 578.48L420.68 578.91L421.1 579.32L421.53 579.72L421.97 580.11L422.41 580.48L422.85 580.85L423.29 581.2L423.74 581.55L424.19 581.88L424.65 582.2L425.11 582.5L425.57 582.8L426.04 583.09L426.52 583.36L426.99 583.62L427.48 583.88L427.96 584.12L428.45 584.35L428.95 584.56L429.45 584.77L429.96 584.97L430.47 585.15L430.98 585.33L431.5 585.49L432.03 585.64L432.56 585.79L433.1 585.92L433.64 586.04L434.19 586.15L434.75 586.25L435.3 586.34L435.87 586.41L436.44 586.48L437.02 586.54L437.6 586.59L438.19 586.62L438.79 586.65L439.39 586.66L440 586.67L440.55 586.68L441.1 586.71L441.63 586.77L442.17 586.84L442.69 586.94L443.21 587.05L443.72 587.19L444.22 587.35L444.71 587.52L445.19 587.71L445.67 587.93L446.13 588.15L446.58 588.4L447.03 588.66L447.46 588.94L447.88 589.24L448.29 589.55L448.68 589.88L449.06 590.22L449.43 590.57L449.79 590.94L450.13 591.32L450.45 591.72L450.76 592.12L451.06 592.54L451.34 592.97L451.6 593.42L451.85 593.87L452.08 594.33L452.29 594.81L452.48 595.29L452.66 595.78L452.81 596.29L452.95 596.8L453.06 597.31L453.16 597.84L453.24 598.37L453.29 598.91L453.32 599.45L453.34 600L453.32 600.55L453.29 601.1L453.24 601.63L453.16 602.17L453.06 602.69L452.95 603.21L452.81 603.72L452.66 604.22L452.48 604.71L452.29 605.19L452.08 605.67L451.85 606.13L451.6 606.58L451.34 607.03L451.06 607.46L450.76 607.88L450.45 608.29L450.13 608.68L449.79 609.06L449.43 609.43L449.06 609.79L448.68 610.13L448.29 610.45L447.88 610.76L447.46 611.06L447.03 611.34L446.58 611.6L446.13 611.85L445.67 612.08L445.19 612.29L444.71 612.48L444.22 612.66L443.72 612.81L443.21 612.95L442.69 613.06L442.17 613.16L441.63 613.24L441.1 613.29L440.55 613.32L440 613.33L200 613.33L199.45 613.32L198.91 613.29L198.37 613.24L197.84 613.16L197.31 613.06L196.8 612.95L196.29 612.81L195.78 612.66L195.29 612.48L194.81 612.29L194.33 612.08L193.87 611.85L193.42 611.6L192.97 611.34L192.54 611.06L192.12 610.76L191.72 610.45L191.32 610.13L190.94 609.79L190.57 609.43L190.22 609.06L189.88 608.68L189.55 608.29L189.24 607.88L188.94 607.46L188.66 607.03L188.4 606.58L188.15 606.13L187.93 605.67L187.71 605.19L187.52 604.71L187.35 604.22L187.19 603.72L187.05 603.21L186.94 602.69L186.84 602.17L186.77 601.63L186.71 601.1L186.68 600.55L186.67 600L186.68 599.45L186.71 598.91L186.77 598.37L186.84 597.84L186.94 597.31L187.05 596.8L187.19 596.29L187.35 595.78L187.52 595.29L187.71 594.81L187.93 594.33L188.15 593.87L188.4 593.42L188.66 592.97L188.94 592.54L189.24 592.12L189.55 591.72L189.88 591.32L190.22 590.94L190.57 590.57L190.94 590.22L191.32 589.88L191.72 589.55L192.12 589.24L192.54 588.94L192.97 588.66L193.42 588.4L193.87 588.15L194.33 587.93L194.81 587.71L195.29 587.52L195.78 587.35L196.29 587.19L196.8 587.05L197.31 586.94L197.84 586.84L198.37 586.77L198.91 586.71L199.45 586.68L200 586.67L200.61 586.66L201.21 586.65L201.81 586.62L202.4 586.59L202.98 586.54L203.56 586.48L204.13 586.41L204.7 586.34L205.26 586.25L205.81 586.15L206.36 586.04L206.9 585.92L207.44 585.79L207.97 585.64L208.5 585.49L209.02 585.33L209.53 585.15L210.05 584.97L210.55 584.77L211.05 584.56L211.55 584.35L212.04 584.12L212.53 583.88L213.01 583.62L213.49 583.36L213.96 583.09L214.43 582.8L214.89 582.5L215.35 582.2L215.81 581.88L216.26 581.55L216.71 581.2L217.16 580.85L217.6 580.48L218.03 580.11L218.47 579.72L218.9 579.32L219.33 578.91L219.75 578.48L220.17 578.05L221.29 576.81L222.37 575.52L223.41 574.16L224.41 572.74L225.37 571.26L226.29 569.73L227.17 568.15L228.02 566.53L228.83 564.86L229.61 563.14L230.35 561.39L231.06 559.6L231.73 557.78L232.38 555.93L232.99 554.05L233.57 552.15L234.12 550.23L234.64 548.28L235.13 546.32L235.59 544.35L236.03 542.37L236.43 540.38L236.82 538.39L237.17 536.39L237.51 534.4L237.82 532.41L238.1 530.43L238.37 528.46L238.61 526.5L238.83 524.56L239.03 522.64L239.21 520.74L239.37 518.86L239.51 517.02L239.64 515.2L239.75 513.41L239.84 511.67L239.92 509.96L239.99 508.29L240.04 506.67L53.33 506.67L51.14 506.62L48.97 506.49L46.82 506.27L44.69 505.97L42.6 505.58L40.53 505.12L38.49 504.57L36.49 503.94L34.52 503.24L32.59 502.47L30.7 501.62L28.84 500.71L27.03 499.72L25.26 498.67L23.53 497.55L21.85 496.37L20.22 495.12L18.64 493.82L17.11 492.45L15.64 491.03L14.22 489.55L12.85 488.03L11.55 486.44L10.3 484.81L9.12 483.13L8 481.41L6.95 479.64L5.96 477.83L5.04 475.97L4.2 474.08L3.42 472.14L2.72 470.18L2.1 468.17L1.55 466.14L1.09 464.07L0.7 461.97L0.4 459.85L0.18 457.7L0.04 455.53L0 453.33L0 80L0.04 77.8L0.18 75.63L0.4 73.48L0.7 71.36L1.09 69.26L1.55 67.2L2.1 65.16L2.72 63.16L3.42 61.19L4.2 59.26L5.04 57.36L5.96 55.51L6.95 53.69L8 51.92L9.12 50.2L10.3 48.52L11.55 46.89L12.85 45.31L14.22 43.78L15.64 42.3L17.11 40.88L18.64 39.52L20.22 38.21L21.85 36.97L23.53 35.79L25.26 34.67L27.03 33.61L28.84 32.63L30.7 31.71L32.59 30.86L34.52 30.09L36.49 29.39L38.49 28.77L40.53 28.22L42.6 27.75L44.69 27.37L46.82 27.06L48.97 26.84L51.14 26.71L53.33 26.67L586.67 26.67L588.86 26.71L591.03 26.84ZM266.75 507.68L266.69 508.74L266.61 509.86L266.51 511.02L266.39 512.24L266.24 513.51L266.06 514.82L265.87 516.19L265.65 517.61L265.4 519.08L265.14 520.6L264.85 522.17L264.53 523.79L264.19 525.46L263.83 527.18L263.45 528.95L263.04 530.78L262.61 532.65L262.15 534.57L261.67 536.55L261.17 538.57L260.65 540.65L260.1 542.78L259.52 544.95L258.93 547.18L258.31 549.46L257.67 551.79L257 554.17L256.31 556.6L255.59 559.08L254.86 561.61L254.1 564.19L253.31 566.82L252.5 569.51L251.67 572.24L250.82 575.02L249.94 577.86L249.04 580.74L248.11 583.68L247.16 586.67L392.84 586.67L391.65 584.79L390.52 582.89L389.43 580.94L388.39 578.96L387.39 576.95L386.43 574.91L385.52 572.85L384.65 570.76L383.82 568.66L383.04 566.53L382.29 564.39L381.58 562.24L380.9 560.07L380.26 557.9L379.66 555.72L379.09 553.53L378.56 551.35L378.05 549.17L377.58 546.99L377.14 544.82L376.73 542.66L376.35 540.51L375.99 538.37L375.66 536.26L375.36 534.16L375.08 532.08L374.82 530.02L374.59 528L374.38 526L374.19 524.03L374.02 522.1L373.87 520.21L373.73 518.35L373.62 516.54L373.52 514.77L373.43 513.04L373.36 511.37L373.3 509.75L373.25 508.18L373.22 506.67L266.78 506.67L266.75 507.68ZM26.67 453.33L26.69 454.43L26.76 455.52L26.87 456.59L27.02 457.65L27.21 458.7L27.44 459.73L27.72 460.75L28.03 461.75L28.38 462.74L28.77 463.7L29.19 464.65L29.65 465.58L30.14 466.48L30.67 467.37L31.23 468.23L31.82 469.07L32.44 469.89L33.1 470.68L33.78 471.44L34.49 472.18L35.23 472.89L35.99 473.57L36.78 474.22L37.6 474.85L38.44 475.44L39.3 476L40.18 476.53L41.09 477.02L42.02 477.48L42.97 477.9L43.93 478.29L44.92 478.64L45.92 478.95L46.93 479.22L47.97 479.46L49.01 479.65L50.08 479.8L51.15 479.91L52.24 479.98L53.33 480L586.67 480L587.4 479.98L588.13 479.93L588.86 479.85L589.58 479.73L590.3 479.58L591.02 479.4L591.73 479.18L592.44 478.93L593.14 478.65L593.85 478.33L594.55 477.98L595.24 477.6L595.93 477.18L596.62 476.73L597.31 476.25L597.99 475.73L598.67 475.18L599.34 474.6L600.02 473.98L600.68 473.33L601.35 472.65L602.01 471.93L602.67 471.18L603.32 470.4L603.97 469.58L604.62 468.73L605.27 467.85L605.91 466.93L606.55 465.98L607.18 465L607.81 463.98L608.44 462.93L609.06 461.85L609.68 460.73L610.3 459.58L610.91 458.4L611.52 457.18L612.13 455.93L612.73 454.65L613.33 453.33L613.33 400L26.67 400L26.67 453.33ZM52.24 53.36L51.15 53.42L50.08 53.53L49.01 53.68L47.97 53.88L46.93 54.11L45.92 54.38L44.91 54.7L43.93 55.05L42.96 55.43L42.02 55.86L41.09 56.32L40.18 56.81L39.3 57.34L38.44 57.9L37.6 58.49L36.78 59.11L35.99 59.76L35.22 60.44L34.49 61.15L33.78 61.89L33.09 62.66L32.44 63.45L31.82 64.26L31.23 65.1L30.67 65.97L30.14 66.85L29.65 67.76L29.19 68.68L28.77 69.63L28.38 70.6L28.03 71.58L27.72 72.58L27.44 73.6L27.21 74.63L27.02 75.68L26.86 76.74L26.75 77.82L26.69 78.9L26.67 80L26.67 373.33L613.33 373.33L613.33 80L613.31 78.9L613.24 77.82L613.13 76.74L612.98 75.68L612.79 74.63L612.56 73.6L612.28 72.58L611.97 71.58L611.62 70.6L611.23 69.63L610.81 68.68L610.35 67.76L609.86 66.85L609.33 65.97L608.77 65.1L608.18 64.26L607.56 63.45L606.9 62.66L606.22 61.89L605.51 61.15L604.77 60.44L604.01 59.76L603.22 59.11L602.4 58.49L601.56 57.9L600.7 57.34L599.82 56.81L598.91 56.32L597.98 55.86L597.03 55.43L596.07 55.05L595.08 54.7L594.08 54.38L593.07 54.11L592.03 53.88L590.99 53.68L589.92 53.53L588.85 53.42L587.76 53.36L586.67 53.33L53.33 53.33L52.24 53.36Z" id="avMu81TxF"></path></defs><g><g><g><use xlink:href="#avMu81TxF" opacity="1" fill="#000000" fill-opacity="1"></use><g><use xlink:href="#avMu81TxF" opacity="1" fill-opacity="0" stroke="#000000" stroke-width="1" stroke-opacity="0"></use></g></g></g></g></svg>